<svg width="559" height="381" viewBox="0 0 559 381" fill="none" xmlns="http://www.w3.org/2000/svg">
<rect width="409.846" height="52.7525" fill="#F2161C"/>
<rect width="409.846" height="52.7525" fill="#F2161C"/>
<path d="M22.7006 26.6992C22.7006 24.4917 23.1984 22.5115 24.1939 20.7585C25.1894 18.9838 26.5421 17.5987 28.2518 16.6032C29.9831 15.6077 31.8985 15.1099 33.9977 15.1099C36.4649 15.1099 38.6183 15.705 40.4579 16.8954C42.2975 18.0857 43.6393 19.7737 44.4833 21.9596H40.9448C40.3172 20.5961 39.4083 19.5465 38.2179 18.8107C37.0493 18.0748 35.6425 17.7069 33.9977 17.7069C32.4179 17.7069 31.0003 18.0748 29.7451 18.8107C28.4898 19.5465 27.5051 20.5961 26.7909 21.9596C26.0768 23.3014 25.7197 24.8813 25.7197 26.6992C25.7197 28.4955 26.0768 30.0754 26.7909 31.4388C27.5051 32.7806 28.4898 33.8194 29.7451 34.5553C31.0003 35.2911 32.4179 35.659 33.9977 35.659C35.6425 35.659 37.0493 35.3019 38.2179 34.5877C39.4083 33.8519 40.3172 32.8023 40.9448 31.4388H44.4833C43.6393 33.603 42.2975 35.2803 40.4579 36.4706C38.6183 37.6393 36.4649 38.2236 33.9977 38.2236C31.8985 38.2236 29.9831 37.7366 28.2518 36.7627C26.5421 35.7672 25.1894 34.3929 24.1939 32.6399C23.1984 30.8869 22.7006 28.9067 22.7006 26.6992ZM57.7107 19.9144C59.0526 19.9144 60.2645 20.2066 61.3466 20.7909C62.4287 21.3536 63.2728 22.2085 63.8787 23.3555C64.5063 24.5025 64.8202 25.8984 64.8202 27.5432V38.0288H61.8985V27.9653C61.8985 26.1906 61.4548 24.838 60.5675 23.9074C59.6802 22.9551 58.4682 22.479 56.9316 22.479C55.3734 22.479 54.129 22.9659 53.1984 23.9398C52.2894 24.9137 51.8349 26.3313 51.8349 28.1925V38.0288H48.8808V14.0061H51.8349V22.7712C52.4193 21.8622 53.22 21.1588 54.2372 20.6611C55.276 20.1633 56.4339 19.9144 57.7107 19.9144ZM77.4044 38.321C75.738 38.321 74.223 37.9422 72.8596 37.1848C71.5178 36.4273 70.4573 35.356 69.6782 33.9709C68.9207 32.5642 68.542 30.941 68.542 29.1015C68.542 27.2835 68.9316 25.682 69.7107 24.2969C70.5114 22.8902 71.5935 21.8189 72.957 21.0831C74.3204 20.3256 75.8462 19.9469 77.5343 19.9469C79.2223 19.9469 80.7481 20.3256 82.1116 21.0831C83.475 21.8189 84.5463 22.8794 85.3254 24.2645C86.1262 25.6496 86.5265 27.2619 86.5265 29.1015C86.5265 30.941 86.1153 32.5642 85.2929 33.9709C84.4922 35.356 83.3993 36.4273 82.0142 37.1848C80.6291 37.9422 79.0925 38.321 77.4044 38.321ZM77.4044 35.7239C78.4649 35.7239 79.4604 35.475 80.391 34.9773C81.3216 34.4795 82.0683 33.7329 82.631 32.7373C83.2153 31.7418 83.5075 30.5298 83.5075 29.1015C83.5075 27.6731 83.2261 26.4611 82.6634 25.4656C82.1007 24.4701 81.3649 23.7342 80.4559 23.2581C79.547 22.7603 78.5623 22.5115 77.5018 22.5115C76.4197 22.5115 75.4242 22.7603 74.5152 23.2581C73.6279 23.7342 72.9137 24.4701 72.3726 25.4656C71.8316 26.4611 71.5611 27.6731 71.5611 29.1015C71.5611 30.5515 71.8208 31.7743 72.3402 32.7698C72.8812 33.7653 73.5954 34.512 74.4827 35.0097C75.3701 35.4859 76.344 35.7239 77.4044 35.7239ZM98.1694 38.321C96.5029 38.321 94.988 37.9422 93.6245 37.1848C92.2827 36.4273 91.2223 35.356 90.4432 33.9709C89.6857 32.5642 89.3069 30.941 89.3069 29.1015C89.3069 27.2835 89.6965 25.682 90.4756 24.2969C91.2764 22.8902 92.3585 21.8189 93.7219 21.0831C95.0854 20.3256 96.6111 19.9469 98.2992 19.9469C99.9873 19.9469 101.513 20.3256 102.877 21.0831C104.24 21.8189 105.311 22.8794 106.09 24.2645C106.891 25.6496 107.291 27.2619 107.291 29.1015C107.291 30.941 106.88 32.5642 106.058 33.9709C105.257 35.356 104.164 36.4273 102.779 37.1848C101.394 37.9422 99.8574 38.321 98.1694 38.321ZM98.1694 35.7239C99.2298 35.7239 100.225 35.475 101.156 34.9773C102.087 34.4795 102.833 33.7329 103.396 32.7373C103.98 31.7418 104.272 30.5298 104.272 29.1015C104.272 27.6731 103.991 26.4611 103.428 25.4656C102.866 24.4701 102.13 23.7342 101.221 23.2581C100.312 22.7603 99.3272 22.5115 98.2668 22.5115C97.1846 22.5115 96.1891 22.7603 95.2801 23.2581C94.3928 23.7342 93.6786 24.4701 93.1376 25.4656C92.5965 26.4611 92.326 27.6731 92.326 29.1015C92.326 30.5515 92.5857 31.7743 93.1051 32.7698C93.6462 33.7653 94.3604 34.512 95.2477 35.0097C96.135 35.4859 97.1089 35.7239 98.1694 35.7239ZM117.473 38.321C116.11 38.321 114.887 38.0937 113.805 37.6393C112.723 37.1631 111.868 36.5139 111.241 35.6915C110.613 34.8474 110.267 33.8844 110.202 32.8023H113.253C113.34 33.6896 113.751 34.4146 114.487 34.9773C115.244 35.54 116.229 35.8213 117.441 35.8213C118.566 35.8213 119.454 35.5724 120.103 35.0747C120.752 34.5769 121.077 33.9493 121.077 33.1918C121.077 32.4127 120.731 31.8392 120.038 31.4713C119.346 31.0817 118.274 30.703 116.824 30.3351C115.504 29.9888 114.422 29.6425 113.578 29.2962C112.756 28.9283 112.041 28.3981 111.435 27.7056C110.851 26.9914 110.559 26.0608 110.559 24.9137C110.559 24.0048 110.829 23.1715 111.37 22.4141C111.911 21.6566 112.68 21.0614 113.675 20.6286C114.671 20.1741 115.807 19.9469 117.084 19.9469C119.053 19.9469 120.644 20.4446 121.856 21.4402C123.068 22.4357 123.717 23.7992 123.804 25.5305H120.85C120.785 24.5999 120.406 23.8533 119.713 23.2906C119.043 22.7279 118.134 22.4465 116.987 22.4465C115.926 22.4465 115.082 22.6738 114.454 23.1283C113.827 23.5827 113.513 24.1779 113.513 24.9137C113.513 25.4981 113.697 25.985 114.065 26.3746C114.454 26.7425 114.931 27.0455 115.493 27.2835C116.078 27.5 116.878 27.7488 117.895 28.0302C119.172 28.3765 120.211 28.7227 121.012 29.069C121.813 29.3936 122.494 29.8914 123.057 30.5623C123.641 31.2332 123.944 32.1097 123.966 33.1918C123.966 34.1657 123.696 35.0422 123.155 35.8213C122.613 36.6004 121.845 37.2172 120.85 37.6717C119.876 38.1046 118.75 38.321 117.473 38.321ZM144.368 28.4522C144.368 29.0149 144.335 29.6101 144.27 30.2377H130.052C130.16 31.9907 130.755 33.3649 131.837 34.3605C132.941 35.3344 134.272 35.8213 135.83 35.8213C137.107 35.8213 138.167 35.5292 139.011 34.9448C139.877 34.3388 140.483 33.5381 140.829 32.5426H144.011C143.535 34.2523 142.582 35.6482 141.154 36.7303C139.726 37.7907 137.951 38.321 135.83 38.321C134.142 38.321 132.627 37.9422 131.285 37.1848C129.965 36.4273 128.926 35.356 128.169 33.9709C127.411 32.5642 127.033 30.941 127.033 29.1015C127.033 27.2619 127.4 25.6496 128.136 24.2645C128.872 22.8794 129.9 21.8189 131.22 21.0831C132.562 20.3256 134.099 19.9469 135.83 19.9469C137.518 19.9469 139.011 20.3148 140.31 21.0506C141.608 21.7865 142.604 22.8036 143.297 24.1022C144.011 25.379 144.368 26.8291 144.368 28.4522ZM141.316 27.8354C141.316 26.71 141.067 25.7469 140.57 24.9462C140.072 24.1238 139.39 23.507 138.524 23.0958C137.68 22.663 136.739 22.4465 135.7 22.4465C134.207 22.4465 132.93 22.9227 131.87 23.8749C130.831 24.8272 130.236 26.1473 130.084 27.8354H141.316ZM155.818 29.069C155.818 27.2511 156.186 25.6604 156.922 24.2969C157.658 22.9118 158.664 21.8406 159.941 21.0831C161.24 20.3256 162.679 19.9469 164.259 19.9469C165.817 19.9469 167.169 20.2823 168.316 20.9532C169.463 21.6241 170.318 22.4682 170.881 23.4854V20.239H173.868V38.0288H170.881V34.7176C170.297 35.7564 169.42 36.6221 168.252 37.3146C167.105 37.9855 165.763 38.321 164.226 38.321C162.646 38.321 161.218 37.9314 159.941 37.1523C158.664 36.3732 157.658 35.2803 156.922 33.8735C156.186 32.4668 155.818 30.8653 155.818 29.069ZM170.881 29.1015C170.881 27.7597 170.611 26.591 170.069 25.5955C169.528 24.5999 168.793 23.8424 167.862 23.323C166.953 22.782 165.947 22.5115 164.843 22.5115C163.739 22.5115 162.733 22.7712 161.824 23.2906C160.915 23.81 160.19 24.5675 159.649 25.563C159.108 26.5585 158.837 27.7272 158.837 29.069C158.837 30.4325 159.108 31.6228 159.649 32.6399C160.19 33.6355 160.915 34.4038 161.824 34.9448C162.733 35.4642 163.739 35.7239 164.843 35.7239C165.947 35.7239 166.953 35.4642 167.862 34.9448C168.793 34.4038 169.528 33.6355 170.069 32.6399C170.611 31.6228 170.881 30.4433 170.881 29.1015ZM202.642 22.0245C202.642 23.9074 201.993 25.4764 200.695 26.7317C199.418 27.9653 197.459 28.5821 194.819 28.5821H190.469V38.0288H187.515V15.4021H194.819C197.372 15.4021 199.309 16.0189 200.63 17.2524C201.971 18.486 202.642 20.0767 202.642 22.0245ZM194.819 26.1473C196.464 26.1473 197.675 25.7902 198.455 25.076C199.234 24.3619 199.623 23.3447 199.623 22.0245C199.623 19.2327 198.022 17.8368 194.819 17.8368H190.469V26.1473H194.819ZM209.268 14.0061V38.0288H206.314V14.0061H209.268ZM213.199 29.069C213.199 27.2511 213.567 25.6604 214.303 24.2969C215.039 22.9118 216.045 21.8406 217.322 21.0831C218.621 20.3256 220.06 19.9469 221.64 19.9469C223.198 19.9469 224.55 20.2823 225.697 20.9532C226.844 21.6241 227.699 22.4682 228.262 23.4854V20.239H231.249V38.0288H228.262V34.7176C227.678 35.7564 226.801 36.6221 225.633 37.3146C224.486 37.9855 223.144 38.321 221.607 38.321C220.027 38.321 218.599 37.9314 217.322 37.1523C216.045 36.3732 215.039 35.2803 214.303 33.8735C213.567 32.4668 213.199 30.8653 213.199 29.069ZM228.262 29.1015C228.262 27.7597 227.992 26.591 227.45 25.5955C226.909 24.5999 226.174 23.8424 225.243 23.323C224.334 22.782 223.328 22.5115 222.224 22.5115C221.12 22.5115 220.114 22.7712 219.205 23.2906C218.296 23.81 217.571 24.5675 217.03 25.563C216.489 26.5585 216.218 27.7272 216.218 29.069C216.218 30.4325 216.489 31.6228 217.03 32.6399C217.571 33.6355 218.296 34.4038 219.205 34.9448C220.114 35.4642 221.12 35.7239 222.224 35.7239C223.328 35.7239 224.334 35.4642 225.243 34.9448C226.174 34.4038 226.909 33.6355 227.45 32.6399C227.992 31.6228 228.262 30.4433 228.262 29.1015ZM235.137 29.1015C235.137 27.2619 235.505 25.6604 236.241 24.2969C236.977 22.9118 237.994 21.8406 239.292 21.0831C240.613 20.3256 242.117 19.9469 243.805 19.9469C245.991 19.9469 247.787 20.4771 249.194 21.5376C250.622 22.598 251.563 24.0697 252.018 25.9525H248.837C248.534 24.8704 247.938 24.0156 247.051 23.388C246.185 22.7603 245.103 22.4465 243.805 22.4465C242.117 22.4465 240.753 23.0309 239.714 24.1995C238.676 25.3466 238.156 26.9805 238.156 29.1015C238.156 31.244 238.676 32.8996 239.714 34.0683C240.753 35.237 242.117 35.8213 243.805 35.8213C245.103 35.8213 246.185 35.5183 247.051 34.9124C247.917 34.3064 248.512 33.4407 248.837 32.3153H252.018C251.542 34.1332 250.59 35.5941 249.161 36.6978C247.733 37.7799 245.947 38.321 243.805 38.321C242.117 38.321 240.613 37.9422 239.292 37.1848C237.994 36.4273 236.977 35.356 236.241 33.9709C235.505 32.5858 235.137 30.9627 235.137 29.1015ZM272.191 28.4522C272.191 29.0149 272.159 29.6101 272.094 30.2377H257.875C257.983 31.9907 258.578 33.3649 259.66 34.3605C260.764 35.3344 262.095 35.8213 263.653 35.8213C264.93 35.8213 265.991 35.5292 266.835 34.9448C267.7 34.3388 268.306 33.5381 268.653 32.5426H271.834C271.358 34.2523 270.406 35.6482 268.977 36.7303C267.549 37.7907 265.774 38.321 263.653 38.321C261.965 38.321 260.45 37.9422 259.109 37.1848C257.788 36.4273 256.75 35.356 255.992 33.9709C255.235 32.5642 254.856 30.941 254.856 29.1015C254.856 27.2619 255.224 25.6496 255.96 24.2645C256.695 22.8794 257.723 21.8189 259.044 21.0831C260.385 20.3256 261.922 19.9469 263.653 19.9469C265.341 19.9469 266.835 20.3148 268.133 21.0506C269.432 21.7865 270.427 22.8036 271.12 24.1022C271.834 25.379 272.191 26.8291 272.191 28.4522ZM269.14 27.8354C269.14 26.71 268.891 25.7469 268.393 24.9462C267.895 24.1238 267.213 23.507 266.348 23.0958C265.504 22.663 264.562 22.4465 263.524 22.4465C262.03 22.4465 260.753 22.9227 259.693 23.8749C258.654 24.8272 258.059 26.1473 257.907 27.8354H269.14ZM313.183 15.4021L306.625 38.0288H303.314L298.055 19.817L292.601 38.0288L289.323 38.0613L282.992 15.4021H286.141L291.076 34.5877L296.529 15.4021H299.841L305.035 34.5228L310.001 15.4021H313.183ZM325.246 19.9144C326.587 19.9144 327.799 20.2066 328.882 20.7909C329.964 21.3536 330.808 22.2085 331.414 23.3555C332.041 24.5025 332.355 25.8984 332.355 27.5432V38.0288H329.433V27.9653C329.433 26.1906 328.99 24.838 328.102 23.9074C327.215 22.9551 326.003 22.479 324.467 22.479C322.908 22.479 321.664 22.9659 320.733 23.9398C319.824 24.9137 319.37 26.3313 319.37 28.1925V38.0288H316.416V14.0061H319.37V22.7712C319.954 21.8622 320.755 21.1588 321.772 20.6611C322.811 20.1633 323.969 19.9144 325.246 19.9144ZM353.412 28.4522C353.412 29.0149 353.38 29.6101 353.315 30.2377H339.096C339.204 31.9907 339.799 33.3649 340.881 34.3605C341.985 35.3344 343.316 35.8213 344.874 35.8213C346.151 35.8213 347.212 35.5292 348.056 34.9448C348.921 34.3388 349.527 33.5381 349.874 32.5426H353.055C352.579 34.2523 351.627 35.6482 350.198 36.7303C348.77 37.7907 346.995 38.321 344.874 38.321C343.186 38.321 341.671 37.9422 340.33 37.1848C339.009 36.4273 337.971 35.356 337.213 33.9709C336.456 32.5642 336.077 30.941 336.077 29.1015C336.077 27.2619 336.445 25.6496 337.181 24.2645C337.917 22.8794 338.945 21.8189 340.265 21.0831C341.606 20.3256 343.143 19.9469 344.874 19.9469C346.563 19.9469 348.056 20.3148 349.354 21.0506C350.653 21.7865 351.648 22.8036 352.341 24.1022C353.055 25.379 353.412 26.8291 353.412 28.4522ZM350.361 27.8354C350.361 26.71 350.112 25.7469 349.614 24.9462C349.116 24.1238 348.435 23.507 347.569 23.0958C346.725 22.663 345.783 22.4465 344.745 22.4465C343.251 22.4465 341.974 22.9227 340.914 23.8749C339.875 24.8272 339.28 26.1473 339.128 27.8354H350.361ZM360.266 23.1283C360.785 22.1111 361.521 21.3212 362.473 20.7585C363.447 20.1958 364.627 19.9144 366.012 19.9144V22.9659H365.233C361.921 22.9659 360.266 24.7622 360.266 28.3548V38.0288H357.312V20.239H360.266V23.1283ZM385.653 28.4522C385.653 29.0149 385.621 29.6101 385.556 30.2377H371.337C371.445 31.9907 372.041 33.3649 373.123 34.3605C374.226 35.3344 375.557 35.8213 377.116 35.8213C378.392 35.8213 379.453 35.5292 380.297 34.9448C381.163 34.3388 381.769 33.5381 382.115 32.5426H385.296C384.82 34.2523 383.868 35.6482 382.44 36.7303C381.011 37.7907 379.237 38.321 377.116 38.321C375.428 38.321 373.913 37.9422 372.571 37.1848C371.251 36.4273 370.212 35.356 369.454 33.9709C368.697 32.5642 368.318 30.941 368.318 29.1015C368.318 27.2619 368.686 25.6496 369.422 24.2645C370.158 22.8794 371.186 21.8189 372.506 21.0831C373.848 20.3256 375.384 19.9469 377.116 19.9469C378.804 19.9469 380.297 20.3148 381.595 21.0506C382.894 21.7865 383.89 22.8036 384.582 24.1022C385.296 25.379 385.653 26.8291 385.653 28.4522ZM382.602 27.8354C382.602 26.71 382.353 25.7469 381.855 24.9462C381.357 24.1238 380.676 23.507 379.81 23.0958C378.966 22.663 378.025 22.4465 376.986 22.4465C375.492 22.4465 374.216 22.9227 373.155 23.8749C372.116 24.8272 371.521 26.1473 371.37 27.8354H382.602Z" fill="white"/>
<path d="M21.1234 118.531V131.404H41.8841V143.371H21.1234V157.332H44.6038V169.752H5.62081V106.11H44.6038V118.531H21.1234ZM51.5859 144.368C51.5859 139.17 52.5529 134.607 54.487 130.679C56.4815 126.75 59.171 123.728 62.5556 121.613C65.9401 119.498 69.7176 118.44 73.8878 118.44C77.212 118.44 80.2339 119.135 82.9537 120.525C85.7338 121.915 87.9096 123.789 89.481 126.146V102.665H104.984V169.752H89.481V162.5C88.0305 164.917 85.9454 166.851 83.2256 168.302C80.5663 169.752 77.4537 170.478 73.8878 170.478C69.7176 170.478 65.9401 169.42 62.5556 167.305C59.171 165.129 56.4815 162.077 54.487 158.148C52.5529 154.159 51.5859 149.566 51.5859 144.368ZM89.481 144.459C89.481 140.591 88.3931 137.539 86.2173 135.302C84.102 133.066 81.5031 131.948 78.4207 131.948C75.3384 131.948 72.7093 133.066 70.5335 135.302C68.4181 137.478 67.3604 140.5 67.3604 144.368C67.3604 148.236 68.4181 151.319 70.5335 153.615C72.7093 155.852 75.3384 156.97 78.4207 156.97C81.5031 156.97 84.102 155.852 86.2173 153.615C88.3931 151.379 89.481 148.327 89.481 144.459ZM166.152 119.165V169.752H150.649V162.862C149.078 165.099 146.932 166.912 144.212 168.302C141.553 169.632 138.592 170.296 135.328 170.296C131.46 170.296 128.045 169.45 125.083 167.758C122.122 166.005 119.825 163.497 118.193 160.233C116.562 156.97 115.746 153.132 115.746 148.72V119.165H131.158V146.635C131.158 150.019 132.034 152.648 133.787 154.522C135.539 156.395 137.897 157.332 140.858 157.332C143.88 157.332 146.267 156.395 148.02 154.522C149.773 152.648 150.649 150.019 150.649 146.635V119.165H166.152ZM174.205 144.459C174.205 139.201 175.262 134.607 177.378 130.679C179.553 126.75 182.545 123.728 186.353 121.613C190.221 119.498 194.633 118.44 199.589 118.44C205.935 118.44 211.223 120.102 215.454 123.426C219.745 126.75 222.556 131.434 223.885 137.478H207.386C205.995 133.61 203.306 131.676 199.317 131.676C196.476 131.676 194.21 132.794 192.518 135.03C190.825 137.206 189.979 140.349 189.979 144.459C189.979 148.569 190.825 151.742 192.518 153.978C194.21 156.154 196.476 157.242 199.317 157.242C203.306 157.242 205.995 155.308 207.386 151.439H223.885C222.556 157.362 219.745 162.016 215.454 165.401C211.163 168.785 205.875 170.478 199.589 170.478C194.633 170.478 190.221 169.42 186.353 167.305C182.545 165.189 179.553 162.167 177.378 158.239C175.262 154.31 174.205 149.717 174.205 144.459ZM229.095 144.368C229.095 139.17 230.062 134.607 231.996 130.679C233.991 126.75 236.68 123.728 240.065 121.613C243.45 119.498 247.227 118.44 251.397 118.44C254.963 118.44 258.076 119.165 260.735 120.616C263.455 122.066 265.54 123.97 266.99 126.327V119.165H282.493V169.752H266.99V162.59C265.479 164.948 263.364 166.851 260.644 168.302C257.985 169.752 254.872 170.478 251.307 170.478C247.197 170.478 243.45 169.42 240.065 167.305C236.68 165.129 233.991 162.077 231.996 158.148C230.062 154.159 229.095 149.566 229.095 144.368ZM266.99 144.459C266.99 140.591 265.903 137.539 263.727 135.302C261.611 133.066 259.013 131.948 255.93 131.948C252.848 131.948 250.219 133.066 248.043 135.302C245.928 137.478 244.87 140.5 244.87 144.368C244.87 148.236 245.928 151.319 248.043 153.615C250.219 155.852 252.848 156.97 255.93 156.97C259.013 156.97 261.611 155.852 263.727 153.615C265.903 151.379 266.99 148.327 266.99 144.459ZM321.903 156.607V169.752H314.016C308.395 169.752 304.013 168.393 300.87 165.673C297.728 162.893 296.156 158.39 296.156 152.165V132.039H289.991V119.165H296.156V106.836H311.659V119.165H321.812V132.039H311.659V152.346C311.659 153.857 312.021 154.945 312.747 155.61C313.472 156.275 314.681 156.607 316.373 156.607H321.903ZM338.335 113.907C335.615 113.907 333.379 113.121 331.626 111.55C329.934 109.918 329.088 107.924 329.088 105.566C329.088 103.149 329.934 101.154 331.626 99.583C333.379 97.9512 335.615 97.1352 338.335 97.1352C340.994 97.1352 343.17 97.9512 344.862 99.583C346.615 101.154 347.491 103.149 347.491 105.566C347.491 107.924 346.615 109.918 344.862 111.55C343.17 113.121 340.994 113.907 338.335 113.907ZM346.041 119.165V169.752H330.538V119.165H346.041ZM380.303 170.478C375.347 170.478 370.874 169.42 366.885 167.305C362.957 165.189 359.844 162.167 357.547 158.239C355.311 154.31 354.193 149.717 354.193 144.459C354.193 139.261 355.341 134.698 357.638 130.769C359.935 126.78 363.078 123.728 367.066 121.613C371.055 119.498 375.528 118.44 380.484 118.44C385.44 118.44 389.912 119.498 393.901 121.613C397.89 123.728 401.033 126.78 403.33 130.769C405.626 134.698 406.775 139.261 406.775 144.459C406.775 149.657 405.596 154.25 403.239 158.239C400.942 162.167 397.769 165.189 393.72 167.305C389.731 169.42 385.259 170.478 380.303 170.478ZM380.303 157.06C383.264 157.06 385.772 155.972 387.827 153.797C389.943 151.621 391 148.508 391 144.459C391 140.409 389.973 137.297 387.918 135.121C385.923 132.945 383.445 131.857 380.484 131.857C377.462 131.857 374.954 132.945 372.959 135.121C370.965 137.236 369.968 140.349 369.968 144.459C369.968 148.508 370.935 151.621 372.869 153.797C374.863 155.972 377.341 157.06 380.303 157.06ZM445.823 118.621C451.746 118.621 456.46 120.555 459.966 124.423C463.532 128.231 465.314 133.489 465.314 140.198V169.752H449.903V142.283C449.903 138.898 449.026 136.269 447.273 134.396C445.521 132.522 443.164 131.585 440.202 131.585C437.241 131.585 434.884 132.522 433.131 134.396C431.378 136.269 430.502 138.898 430.502 142.283V169.752H414.999V119.165H430.502V125.874C432.073 123.638 434.188 121.885 436.848 120.616C439.507 119.286 442.499 118.621 445.823 118.621ZM473.005 144.368C473.005 139.17 473.972 134.607 475.906 130.679C477.9 126.75 480.59 123.728 483.974 121.613C487.359 119.498 491.136 118.44 495.307 118.44C498.873 118.44 501.985 119.165 504.645 120.616C507.364 122.066 509.449 123.97 510.9 126.327V119.165H526.402V169.752H510.9V162.59C509.389 164.948 507.274 166.851 504.554 168.302C501.895 169.752 498.782 170.478 495.216 170.478C491.106 170.478 487.359 169.42 483.974 167.305C480.59 165.129 477.9 162.077 475.906 158.148C473.972 154.159 473.005 149.566 473.005 144.368ZM510.9 144.459C510.9 140.591 509.812 137.539 507.636 135.302C505.521 133.066 502.922 131.948 499.84 131.948C496.757 131.948 494.128 133.066 491.952 135.302C489.837 137.478 488.779 140.5 488.779 144.368C488.779 148.236 489.837 151.319 491.952 153.615C494.128 155.852 496.757 156.97 499.84 156.97C502.922 156.97 505.521 155.852 507.636 153.615C509.812 151.379 510.9 148.327 510.9 144.459ZM553.12 102.665V169.752H537.618V102.665H553.12ZM21.1234 209.531V222.404H41.8841V234.371H21.1234V248.332H44.6038V260.752H5.62081V197.11H44.6038V209.531H21.1234ZM84.5855 260.752L74.8851 246.7L66.7258 260.752H49.9541L66.6352 234.915L49.5008 210.165H66.9072L76.6076 224.127L84.7668 210.165H101.539L84.5855 235.64L101.992 260.752H84.5855ZM104.883 235.459C104.883 230.201 105.941 225.607 108.056 221.679C110.232 217.75 113.224 214.728 117.031 212.613C120.899 210.498 125.311 209.44 130.267 209.44C136.613 209.44 141.902 211.102 146.132 214.426C150.424 217.75 153.234 222.434 154.564 228.478H138.064C136.674 224.61 133.984 222.676 129.995 222.676C127.155 222.676 124.888 223.794 123.196 226.03C121.504 228.206 120.658 231.349 120.658 235.459C120.658 239.569 121.504 242.742 123.196 244.978C124.888 247.154 127.155 248.242 129.995 248.242C133.984 248.242 136.674 246.308 138.064 242.439H154.564C153.234 248.362 150.424 253.016 146.132 256.401C141.841 259.785 136.553 261.478 130.267 261.478C125.311 261.478 120.899 260.42 117.031 258.305C113.224 256.189 110.232 253.167 108.056 249.239C105.941 245.31 104.883 240.717 104.883 235.459ZM210.542 234.643C210.542 236.093 210.452 237.604 210.27 239.176H175.186C175.427 242.319 176.425 244.736 178.177 246.428C179.99 248.06 182.196 248.876 184.795 248.876C188.663 248.876 191.353 247.244 192.864 243.981H209.364C208.518 247.305 206.976 250.297 204.74 252.956C202.564 255.615 199.814 257.7 196.49 259.211C193.166 260.722 189.449 261.478 185.339 261.478C180.383 261.478 175.971 260.42 172.103 258.305C168.235 256.189 165.213 253.167 163.037 249.239C160.862 245.31 159.774 240.717 159.774 235.459C159.774 230.201 160.831 225.607 162.947 221.679C165.123 217.75 168.144 214.728 172.013 212.613C175.881 210.498 180.323 209.44 185.339 209.44C190.235 209.44 194.586 210.467 198.394 212.522C202.202 214.577 205.163 217.508 207.279 221.316C209.454 225.124 210.542 229.566 210.542 234.643ZM194.677 230.563C194.677 227.904 193.771 225.789 191.957 224.217C190.144 222.646 187.878 221.86 185.158 221.86C182.559 221.86 180.353 222.616 178.54 224.127C176.787 225.638 175.699 227.783 175.276 230.563H194.677ZM234.223 193.665V260.752H218.721V193.665H234.223ZM260.96 193.665V260.752H245.458V193.665H260.96ZM319.881 234.643C319.881 236.093 319.79 237.604 319.609 239.176H284.524C284.766 242.319 285.763 244.736 287.516 246.428C289.329 248.06 291.535 248.876 294.134 248.876C298.002 248.876 300.692 247.244 302.203 243.981H318.702C317.856 247.305 316.315 250.297 314.079 252.956C311.903 255.615 309.153 257.7 305.829 259.211C302.505 260.722 298.788 261.478 294.678 261.478C289.722 261.478 285.31 260.42 281.442 258.305C277.574 256.189 274.552 253.167 272.376 249.239C270.2 245.31 269.112 240.717 269.112 235.459C269.112 230.201 270.17 225.607 272.285 221.679C274.461 217.75 277.483 214.728 281.351 212.613C285.219 210.498 289.662 209.44 294.678 209.44C299.574 209.44 303.925 210.467 307.733 212.522C311.54 214.577 314.502 217.508 316.617 221.316C318.793 225.124 319.881 229.566 319.881 234.643ZM304.016 230.563C304.016 227.904 303.109 225.789 301.296 224.217C299.483 222.646 297.216 221.86 294.497 221.86C291.898 221.86 289.692 222.616 287.879 224.127C286.126 225.638 285.038 227.783 284.615 230.563H304.016ZM358.883 209.621C364.806 209.621 369.52 211.555 373.026 215.423C376.592 219.231 378.375 224.489 378.375 231.198V260.752H362.963V233.283C362.963 229.898 362.086 227.269 360.334 225.396C358.581 223.522 356.224 222.585 353.262 222.585C350.301 222.585 347.944 223.522 346.191 225.396C344.438 227.269 343.562 229.898 343.562 233.283V260.752H328.059V210.165H343.562V216.874C345.133 214.638 347.249 212.885 349.908 211.616C352.567 210.286 355.559 209.621 358.883 209.621ZM386.065 235.459C386.065 230.201 387.123 225.607 389.238 221.679C391.414 217.75 394.406 214.728 398.213 212.613C402.081 210.498 406.493 209.44 411.449 209.44C417.795 209.44 423.084 211.102 427.315 214.426C431.606 217.75 434.416 222.434 435.746 228.478H419.246C417.856 224.61 415.166 222.676 411.177 222.676C408.337 222.676 406.07 223.794 404.378 226.03C402.686 228.206 401.84 231.349 401.84 235.459C401.84 239.569 402.686 242.742 404.378 244.978C406.07 247.154 408.337 248.242 411.177 248.242C415.166 248.242 417.856 246.308 419.246 242.439H435.746C434.416 248.362 431.606 253.016 427.315 256.401C423.023 259.785 417.735 261.478 411.449 261.478C406.493 261.478 402.081 260.42 398.213 258.305C394.406 256.189 391.414 253.167 389.238 249.239C387.123 245.31 386.065 240.717 386.065 235.459ZM491.724 234.643C491.724 236.093 491.634 237.604 491.452 239.176H456.368C456.609 242.319 457.607 244.736 459.359 246.428C461.173 248.06 463.379 248.876 465.977 248.876C469.845 248.876 472.535 247.244 474.046 243.981H490.546C489.7 247.305 488.158 250.297 485.922 252.956C483.746 255.615 480.996 257.7 477.672 259.211C474.348 260.722 470.631 261.478 466.521 261.478C461.565 261.478 457.153 260.42 453.285 258.305C449.417 256.189 446.395 253.167 444.219 249.239C442.044 245.31 440.956 240.717 440.956 235.459C440.956 230.201 442.013 225.607 444.129 221.679C446.305 217.75 449.326 214.728 453.195 212.613C457.063 210.498 461.505 209.44 466.521 209.44C471.417 209.44 475.768 210.467 479.576 212.522C483.384 214.577 486.345 217.508 488.461 221.316C490.636 225.124 491.724 229.566 491.724 234.643ZM475.859 230.563C475.859 227.904 474.953 225.789 473.139 224.217C471.326 222.646 469.06 221.86 466.34 221.86C463.741 221.86 461.535 222.616 459.722 224.127C457.969 225.638 456.881 227.783 456.458 230.563H475.859Z" fill="white"/>
<path d="M19.5584 371.212C16.5393 371.212 13.8265 370.687 11.42 369.637C9.05725 368.543 7.19767 367.055 5.84127 365.174C4.48487 363.248 3.78479 361.039 3.74104 358.545H10.1074C10.3261 360.689 11.2012 362.505 12.7327 363.992C14.3078 365.436 16.5831 366.158 19.5584 366.158C22.4025 366.158 24.634 365.458 26.2529 364.058C27.9156 362.614 28.7469 360.776 28.7469 358.545C28.7469 356.795 28.2656 355.373 27.303 354.279C26.3404 353.185 25.1372 352.354 23.6932 351.785C22.2493 351.216 20.3022 350.603 17.852 349.947C14.8329 349.159 12.4045 348.372 10.5668 347.584C8.77285 346.797 7.21955 345.572 5.9069 343.909C4.63801 342.202 4.00357 339.927 4.00357 337.083C4.00357 334.589 4.63801 332.379 5.9069 330.454C7.17579 328.529 8.94787 327.041 11.2231 325.991C13.5421 324.941 16.1893 324.416 19.1646 324.416C23.4526 324.416 26.953 325.488 29.6658 327.632C32.4223 329.776 33.9756 332.62 34.3257 336.164H27.7624C27.5437 334.414 26.6248 332.883 25.0059 331.57C23.387 330.214 21.243 329.535 18.5739 329.535C16.0799 329.535 14.0453 330.192 12.4701 331.504C10.895 332.773 10.1074 334.567 10.1074 336.886C10.1074 338.549 10.5668 339.905 11.4856 340.955C12.4483 342.006 13.6078 342.815 14.9642 343.384C16.3643 343.909 18.3114 344.521 20.8054 345.221C23.8245 346.053 26.2529 346.884 28.0906 347.716C29.9283 348.503 31.5035 349.75 32.8161 351.457C34.1288 353.119 34.7851 355.394 34.7851 358.282C34.7851 360.514 34.1944 362.614 33.013 364.583C31.8316 366.552 30.0815 368.149 27.7624 369.374C25.4434 370.599 22.7088 371.212 19.5584 371.212ZM75.4715 334.786V370.752H69.4989V365.436C68.3613 367.274 66.7642 368.718 64.7078 369.768C62.695 370.774 60.4636 371.277 58.0133 371.277C55.213 371.277 52.6971 370.709 50.4656 369.571C48.2341 368.39 46.462 366.639 45.1494 364.32C43.8805 362.001 43.246 359.179 43.246 355.854V334.786H49.1529V355.066C49.1529 358.61 50.0499 361.345 51.8438 363.27C53.6378 365.152 56.0881 366.093 59.1947 366.093C62.3888 366.093 64.9047 365.108 66.7424 363.139C68.5801 361.17 69.4989 358.304 69.4989 354.541V334.786H75.4715ZM91.5283 340.627C92.5784 338.571 94.0661 336.974 95.9913 335.836C97.9603 334.698 100.345 334.13 103.145 334.13V340.299H101.57C94.8755 340.299 91.5283 343.931 91.5283 351.194V370.752H85.5558V334.786H91.5283V340.627ZM116.012 340.627C117.062 338.571 118.55 336.974 120.475 335.836C122.444 334.698 124.829 334.13 127.629 334.13V340.299H126.054C119.359 340.299 116.012 343.931 116.012 351.194V370.752H110.04V334.786H116.012V340.627ZM150.21 371.343C146.841 371.343 143.778 370.577 141.021 369.046C138.308 367.515 136.164 365.349 134.589 362.548C133.058 359.704 132.292 356.423 132.292 352.704C132.292 349.028 133.08 345.79 134.655 342.99C136.274 340.146 138.462 337.98 141.218 336.492C143.975 334.961 147.059 334.195 150.472 334.195C153.885 334.195 156.97 334.961 159.726 336.492C162.483 337.98 164.649 340.124 166.224 342.924C167.843 345.725 168.652 348.984 168.652 352.704C168.652 356.423 167.821 359.704 166.158 362.548C164.539 365.349 162.33 367.515 159.529 369.046C156.729 370.577 153.623 371.343 150.21 371.343ZM150.21 366.093C152.354 366.093 154.366 365.589 156.248 364.583C158.129 363.577 159.639 362.067 160.776 360.054C161.958 358.042 162.549 355.591 162.549 352.704C162.549 349.816 161.98 347.365 160.842 345.353C159.704 343.34 158.217 341.852 156.379 340.89C154.541 339.883 152.551 339.38 150.407 339.38C148.219 339.38 146.206 339.883 144.368 340.89C142.574 341.852 141.131 343.34 140.037 345.353C138.943 347.365 138.396 349.816 138.396 352.704C138.396 355.635 138.921 358.107 139.971 360.12C141.065 362.133 142.509 363.642 144.303 364.649C146.097 365.611 148.066 366.093 150.21 366.093ZM208.402 334.786V370.752H202.43V365.436C201.292 367.274 199.695 368.718 197.639 369.768C195.626 370.774 193.395 371.277 190.944 371.277C188.144 371.277 185.628 370.709 183.397 369.571C181.165 368.39 179.393 366.639 178.08 364.32C176.811 362.001 176.177 359.179 176.177 355.854V334.786H182.084V355.066C182.084 358.61 182.981 361.345 184.775 363.27C186.569 365.152 189.019 366.093 192.126 366.093C195.32 366.093 197.836 365.108 199.673 363.139C201.511 361.17 202.43 358.304 202.43 354.541V334.786H208.402ZM236.011 334.13C240.386 334.13 243.93 335.464 246.643 338.133C249.356 340.758 250.712 344.565 250.712 349.553V370.752H244.805V350.406C244.805 346.819 243.908 344.084 242.114 342.202C240.32 340.277 237.87 339.315 234.764 339.315C231.613 339.315 229.097 340.299 227.216 342.268C225.378 344.237 224.459 347.103 224.459 350.866V370.752H218.487V334.786H224.459V339.905C225.641 338.068 227.238 336.646 229.25 335.639C231.307 334.633 233.56 334.13 236.011 334.13ZM258.237 352.638C258.237 348.963 258.981 345.747 260.468 342.99C261.956 340.19 263.991 338.024 266.572 336.492C269.197 334.961 272.129 334.195 275.367 334.195C278.167 334.195 280.771 334.852 283.177 336.164C285.584 337.433 287.421 339.118 288.69 341.218V322.185H294.728V370.752H288.69V363.992C287.509 366.136 285.759 367.908 283.44 369.309C281.121 370.665 278.408 371.343 275.301 371.343C272.107 371.343 269.197 370.556 266.572 368.98C263.991 367.405 261.956 365.196 260.468 362.352C258.981 359.507 258.237 356.27 258.237 352.638ZM288.69 352.704C288.69 349.991 288.143 347.628 287.049 345.615C285.955 343.603 284.468 342.071 282.586 341.021C280.749 339.927 278.714 339.38 276.483 339.38C274.251 339.38 272.216 339.905 270.379 340.955C268.541 342.006 267.075 343.537 265.981 345.55C264.888 347.562 264.341 349.925 264.341 352.638C264.341 355.394 264.888 357.801 265.981 359.857C267.075 361.87 268.541 363.424 270.379 364.517C272.216 365.567 274.251 366.093 276.483 366.093C278.714 366.093 280.749 365.567 282.586 364.517C284.468 363.424 285.955 361.87 287.049 359.857C288.143 357.801 288.69 355.416 288.69 352.704ZM317.554 371.343C314.797 371.343 312.325 370.884 310.138 369.965C307.95 369.002 306.222 367.69 304.953 366.027C303.684 364.32 302.984 362.373 302.852 360.186H309.022C309.197 361.98 310.028 363.445 311.516 364.583C313.047 365.721 315.038 366.289 317.488 366.289C319.764 366.289 321.558 365.786 322.87 364.78C324.183 363.774 324.839 362.505 324.839 360.973C324.839 359.398 324.139 358.239 322.739 357.495C321.339 356.707 319.173 355.941 316.241 355.198C313.572 354.498 311.385 353.797 309.678 353.097C308.015 352.354 306.572 351.282 305.346 349.881C304.165 348.437 303.574 346.556 303.574 344.237C303.574 342.399 304.121 340.715 305.215 339.183C306.309 337.652 307.862 336.449 309.875 335.574C311.888 334.655 314.185 334.195 316.766 334.195C320.748 334.195 323.964 335.202 326.414 337.214C328.865 339.227 330.177 341.984 330.352 345.484H324.38C324.249 343.603 323.483 342.093 322.083 340.955C320.726 339.818 318.889 339.249 316.57 339.249C314.426 339.249 312.719 339.708 311.45 340.627C310.181 341.546 309.547 342.749 309.547 344.237C309.547 345.418 309.919 346.403 310.663 347.19C311.45 347.934 312.413 348.547 313.55 349.028C314.732 349.466 316.351 349.969 318.407 350.538C320.989 351.238 323.089 351.938 324.708 352.638C326.327 353.294 327.705 354.301 328.843 355.657C330.024 357.013 330.637 358.785 330.68 360.973C330.68 362.942 330.134 364.714 329.04 366.289C327.946 367.865 326.392 369.112 324.38 370.03C322.411 370.906 320.136 371.343 317.554 371.343ZM388.638 325.007L373.739 353.491V370.752H367.767V353.491L352.803 325.007H359.432L370.72 348.175L382.009 325.007H388.638ZM410.624 371.343C407.255 371.343 404.192 370.577 401.435 369.046C398.722 367.515 396.578 365.349 395.003 362.548C393.472 359.704 392.706 356.423 392.706 352.704C392.706 349.028 393.494 345.79 395.069 342.99C396.688 340.146 398.875 337.98 401.632 336.492C404.389 334.961 407.473 334.195 410.886 334.195C414.299 334.195 417.384 334.961 420.14 336.492C422.897 337.98 425.063 340.124 426.638 342.924C428.257 345.725 429.066 348.984 429.066 352.704C429.066 356.423 428.235 359.704 426.572 362.548C424.953 365.349 422.744 367.515 419.943 369.046C417.143 370.577 414.037 371.343 410.624 371.343ZM410.624 366.093C412.768 366.093 414.78 365.589 416.662 364.583C418.543 363.577 420.053 362.067 421.19 360.054C422.372 358.042 422.963 355.591 422.963 352.704C422.963 349.816 422.394 347.365 421.256 345.353C420.118 343.34 418.631 341.852 416.793 340.89C414.955 339.883 412.965 339.38 410.821 339.38C408.633 339.38 406.62 339.883 404.782 340.89C402.988 341.852 401.545 343.34 400.451 345.353C399.357 347.365 398.81 349.816 398.81 352.704C398.81 355.635 399.335 358.107 400.385 360.12C401.479 362.133 402.923 363.642 404.717 364.649C406.511 365.611 408.48 366.093 410.624 366.093ZM468.816 334.786V370.752H462.844V365.436C461.706 367.274 460.109 368.718 458.053 369.768C456.04 370.774 453.808 371.277 451.358 371.277C448.558 371.277 446.042 370.709 443.81 369.571C441.579 368.39 439.807 366.639 438.494 364.32C437.225 362.001 436.591 359.179 436.591 355.854V334.786H442.498V355.066C442.498 358.61 443.395 361.345 445.189 363.27C446.983 365.152 449.433 366.093 452.54 366.093C455.734 366.093 458.25 365.108 460.087 363.139C461.925 361.17 462.844 358.304 462.844 354.541V334.786H468.816Z" fill="white"/>
</svg>
